<?xml version="1.0" encoding="UTF-8"?>
<svg width="125px" height="32px" viewBox="0 0 125 32" version="1.1" xmlns="http://www.w3.org/2000/svg" xmlns:xlink="http://www.w3.org/1999/xlink">
    <title>logo</title>
    <g id="Symbols" stroke="none" stroke-width="1" fill="none" fill-rule="evenodd">
        <g id="Navigation/DK/Footer/Default" transform="translate(-68.000000, -72.000000)" fill="#FFF6E6">
            <g id="Footer-main" transform="translate(0.000000, 48.000000)">
                <g id="BRAND/Logos/Nestle-cereals" transform="translate(68.000000, 24.000000)">
                    <path d="M124.085969,28.811401 C124.085969,27.2767648 122.841917,26.0327129 121.307281,26.0327129 C119.772645,26.0327129 118.528593,27.2767648 118.528593,28.811401 C118.528593,30.3460372 119.772645,31.5900891 121.307281,31.5900891 C122.841917,31.5900891 124.085969,30.3460372 124.085969,28.811401 L124.085969,28.811401 Z M124.44624,28.811401 C124.44624,30.5449786 123.040859,31.9503601 121.307281,31.9503601 C119.573704,31.9503601 118.168322,30.5449786 118.168322,28.811401 C118.168322,27.0778234 119.573704,25.6724419 121.307281,25.6724419 C123.040859,25.6724419 124.44624,27.0778234 124.44624,28.811401 L124.44624,28.811401 Z M122.087009,28.0778762 C122.087009,27.8831351 122.00854,27.587396 121.598056,27.587396 L120.723058,27.587396 L120.723058,28.5901217 L121.549944,28.5901217 C121.909833,28.5901217 122.087009,28.4475024 122.087009,28.0778762 L122.087009,28.0778762 Z M122.84459,30.5755262 L122.84459,30.6757606 L122.071354,30.6757606 C122.017704,30.4980116 121.997276,30.3145349 121.997276,29.9242891 C121.997276,29.4128073 121.968446,29.2123385 121.449137,29.2123385 L120.723058,29.2123385 L120.723058,30.6757606 L120.037264,30.6757606 L120.037264,26.9474233 L121.730748,26.9474233 C122.62312,26.9474233 122.789605,27.6784661 122.789605,28.0001707 C122.789605,28.4079815 122.600591,28.7650068 122.277359,28.8864336 C122.545605,29.0246616 122.696625,29.1390242 122.696625,29.8374193 C122.696625,30.3865128 122.696625,30.5176766 122.84459,30.5755262 L122.84459,30.5755262 Z M65.9559441,18.1617362 C64.5616361,17.8049018 61.2222082,16.9539595 60.4942202,16.7662826 C59.1951825,16.4359864 57.9893151,16.0140474 57.9893151,14.8965772 C57.9893151,13.2143578 59.5388433,12.6442628 61.4805265,12.6442628 C63.5577649,12.6442628 65.1071021,13.3936342 65.6623051,14.6926718 C65.9355154,15.3127885 66.4490973,15.4342153 67.163148,15.4342153 L70.0094227,15.4342153 C70.4806198,15.4342153 71.0253221,15.037669 71.0253221,14.4160249 C71.0253221,11.1048536 67.0728416,8.14860741 61.4805265,8.14860741 C55.692134,8.14860741 51.8975465,10.9001845 51.8975465,15.2929326 C51.8975465,18.6529801 54.5490801,20.6496491 57.8186303,21.5034551 C59.3017174,21.8942738 61.8388883,22.5258459 63.0764489,22.8454504 C64.4043158,23.1952206 65.5968186,23.6016949 65.5968186,24.7434123 C65.5968186,26.5474403 63.7017205,27.1620203 61.6244822,27.1620203 C59.6587427,27.1620203 57.7029312,26.2801486 57.1412368,24.8808766 C56.8195321,24.0715555 56.2452368,23.9487923 55.3830302,23.9487923 L52.4916977,23.9487923 C51.9807888,23.9487923 51.4022932,24.3848596 51.4022932,25.0410607 L51.4022932,25.4192785 C51.4022932,28.6197147 55.7012982,31.9782348 61.6286825,31.9782348 C65.8366175,31.9782348 71.7011882,30.2284288 71.7011882,24.5881922 C71.7011882,21.3270426 69.5183697,19.0563997 65.9559441,18.1617362 L65.9559441,18.1617362 Z M70.534269,4.04625266 L70.534269,2.06447566 C70.534269,1.32713242 69.9359175,0.730308252 69.1938012,0.730308252 L21.555166,0.730308252 C20.4655705,0.730308252 19.6783965,1.60587948 19.6783965,2.69452037 L19.6783965,21.4032207 C19.6783965,21.4032207 9.49076441,2.85966845 8.95885394,1.91269216 C8.45329079,1.02241989 7.37343234,0.202407154 5.88175376,0.202407154 L1.95791167,0.202407154 C0.875571225,0.202407154 0,1.08580621 0,2.16681019 L0,29.6054483 C0,30.6925618 0.875571225,31.5675602 1.96459396,31.5675602 L4.47274468,31.5675602 C5.55527604,31.5675602 6.35562375,30.6833975 6.35562375,29.5989569 L6.35562375,10.3667466 C6.35562375,10.3667466 16.6392899,29.0911027 17.0837578,29.8303551 C17.6788637,30.8265895 18.6959086,31.5675602 20.1578032,31.5675602 L23.7568859,31.5675602 C24.8363625,31.5675602 25.7140339,30.6925618 25.7140339,29.6054483 L25.7140339,5.37984729 L69.1938012,5.37984729 C69.9359175,5.37984729 70.534269,4.78588696 70.534269,4.04625266 L70.534269,4.04625266 Z M111.423025,17.3926998 C111.181699,14.7948154 108.852061,12.8701243 106.153942,12.8701243 C103.45506,12.8701243 101.162843,14.7948154 100.932781,17.3926998 L111.423025,17.3926998 Z M115.592967,21.9013379 L100.889059,21.9013379 C101.04428,24.54428 103.14462,26.9277582 106.170934,26.9277582 C108.310222,26.9277582 109.763526,26.155858 110.750023,24.7037004 C111.057599,24.2479681 111.570608,23.9487923 112.199126,23.9487923 L115.65788,23.9487923 C116.450209,23.95452 116.836828,24.692436 116.712537,25.2569942 C115.811764,29.4466006 111.040034,32 106.202627,32 C99.1335258,32 94.7421142,26.3372345 94.7421142,19.9060054 C94.7421142,13.8755229 98.8400777,8.15128033 106.153942,8.15128033 C114.067495,8.15128033 117.544578,14.0273064 117.544578,19.9060054 C117.544578,21.1584579 116.944126,21.9013379 115.592967,21.9013379 L115.592967,21.9013379 Z M44.4093696,17.3926998 C44.1688071,14.7948154 41.8410783,12.8701243 39.1402866,12.8701243 C36.4372039,12.8701243 34.1470868,14.7948154 33.9135885,17.3926998 L44.4093696,17.3926998 Z M48.5758744,21.9013379 L33.865476,21.9013379 C34.0271874,24.54428 36.1212269,26.9277582 39.1565151,26.9277582 C41.2971397,26.9277582 42.7435696,26.155858 43.7392312,24.7037004 C44.048144,24.2479681 44.5598167,23.9487923 45.18337,23.9487923 L48.6491887,23.9487923 C49.438081,23.95452 49.8218356,24.692436 49.7004088,25.2569942 C48.801545,29.4466006 44.0263788,32 39.1939359,32 C32.1200612,32 27.7242583,26.3372345 27.7242583,19.9060054 C27.7242583,13.8755229 31.824322,8.15128033 39.1402866,8.15128033 C47.0546028,8.15128033 50.5280584,14.0273064 50.5280584,19.9060054 C50.5280584,21.1584579 49.9262702,21.9013379 48.5758744,21.9013379 L48.5758744,21.9013379 Z M84.1911564,8.94437297 L80.1836901,8.94437297 L80.1836901,2.16681019 C80.1836901,1.20723301 79.4081624,0.424641107 78.4443849,0.424641107 L75.8755208,0.424641107 C74.9130798,0.424641107 74.1341154,1.20016887 74.1341154,2.16241897 L74.142516,8.94437297 L72.8471059,8.94437297 C72.160739,8.94437297 71.5940806,9.49900324 71.5940806,10.1903341 L71.5940806,12.039038 C71.5940806,12.7290325 72.1542476,13.2821353 72.8387053,13.2821353 L74.142516,13.2821353 L74.1488164,24.3228097 C74.1488164,28.1357258 76.9916545,31.5688967 81.51423,31.5688967 L83.9385657,31.5688967 C84.6843095,31.5688967 85.2960257,30.9650084 85.2960257,30.2171644 L85.2960257,28.2098038 C85.2960257,27.4611961 84.6843095,26.8599807 83.9315016,26.8599807 L83.5716124,26.8599807 C81.4013947,26.8599807 80.1905634,25.4933564 80.1905634,23.4888597 L80.1836901,13.2821353 L84.1997479,13.2821353 C84.885542,13.2821353 85.4441816,12.7290325 85.4441816,12.039038 L85.4441816,10.1903341 C85.4441816,9.49900324 84.8798143,8.94437297 84.1911564,8.94437297 L84.1911564,8.94437297 Z M97.2300271,5.23302778 L115.418081,5.23302778 C116.24134,5.23302778 116.917206,4.55792533 116.917206,3.7253117 L116.917206,1.50640878 C116.917206,0.680859289 116.235039,-0.0685120714 115.418081,0.00499314485 C115.418081,0.00499314485 97.8304788,1.73360672 97.2638204,1.80272072 C96.6120105,1.87030733 96.2477301,2.39248075 96.2477301,2.9385195 L96.2477301,4.24805789 C96.2477301,4.79008726 96.6887614,5.23302778 97.2300271,5.23302778 L97.2300271,5.23302778 Z M92.8844369,2.20633118 L92.8844369,29.7818608 C92.8844369,30.7689308 92.0850438,31.5675602 91.1014104,31.5675602 L88.4697327,31.5675602 C87.4834263,31.5675602 86.6903337,30.7689308 86.6903337,29.7866338 L86.6903337,2.20633118 C86.6903337,1.2240342 87.4834263,0.418340659 88.4626686,0.418340659 L91.1014104,0.418340659 C92.0850438,0.418340659 92.8844369,1.21773375 92.8844369,2.20633118 L92.8844369,2.20633118 Z"></path>
                </g>
            </g>
        </g>
    </g>
</svg>